<?xml version="1.0" encoding="utf-8"?>
<!-- Generator: Adobe Illustrator 22.1.0, SVG Export Plug-In . SVG Version: 6.00 Build 0)  -->
<svg version="1.1" id="Слой_1" xmlns="http://www.w3.org/2000/svg" xmlns:xlink="http://www.w3.org/1999/xlink" x="0px" y="0px"
	 viewBox="0 0 100 100" style="enable-background:new 0 0 100 100;" xml:space="preserve">
<style type="text/css">
	.st0{fill:#FEFEFE;}
</style>
<path d="M-148.7,51.3c0-3,0.6-5.7,1.9-8.2c1.2-2.3,3.3-2.8,5.4-1.4c4.5,3,9.3,3.4,14.3,1.4c0.6-0.2,0.8-0.5,0.6-1.2
	c-0.6-3.4,0-6.5,1.7-9.5c0.3-0.5,0.3-0.7-0.1-1.1c-5.4-4.7-7.5-10.6-5.8-17.6C-129,7-124.5,2.6-117.6,1c6.9-1.7,14.6,1.6,18.4,7.7
	c1.4,2.2,0.8,4.2-1.5,5.4c-4.5,2.3-7.2,5.9-8.2,10.8c0,0.2,0,0.3-0.1,0.5c-0.2,0.8,0,1.3,0.9,1.6c3.1,1.2,5.4,3.3,7,6.2
	c0.3,0.6,0.5,0.7,1.1,0.5c6.7-2.3,12.8-1.2,17.9,3.6c5.1,4.8,6.7,10.8,4.8,17.4c-2,6.8-6.7,10.8-13.6,12.3c-0.8,0.2-1.7,0.2-2.6,0.2
	c-2.3,0-3.8-1.5-3.6-3.9c0.2-3-0.3-5.8-1.8-8.5c-1.1-2-2.6-3.6-4.4-5c-0.4-0.3-0.7-0.3-1.1,0c-2.6,2.1-5.6,3.2-8.9,3.1
	c-0.6,0-0.8,0.1-0.9,0.8c-1.1,8-8,14.5-16,14.8c-8.7,0.4-16.1-5.1-17.9-13.3C-148.5,53.9-148.7,52.5-148.7,51.3z"/>
<path class="st0" d="M71.7,71.4c-0.4-3.4-1.5-6.6-3.4-9.4c-1.5-2.2-3.3-4.2-5.5-5.7c-0.6-0.4-0.8-0.7-0.5-1.4
	c0.1-0.2,0.1-0.4,0.1-0.5c-0.1-1.5,0.9-2,2.1-2.4c5.3-2,11.3,0.6,13.3,6C79.9,63.3,77.2,69.4,71.7,71.4z"/>
<path d="M87.4,39.2c0,1.6,0,1.6,1.6,2.1c4.3,1.4,7.1,4.2,9,8.3c0.6,1.3,0.6,2.6,0.8,4c0,1.2,0,2.4,0,3.6c-0.3,3.4-1.8,6.1-4.1,8.4
	c-2.3,2.3-5.4,3.7-8.7,4.1c-2.4,0.3-2.1-0.1-2.1,2.4c0,1.6,0,3.2,0,4.9c0,0.6,0.5,1.1,1,1.1c2.5,0,5.1,0,7.6,0
	c2.6,0,3.9,1.3,3.9,3.9c0,3.8,0,7.5,0,11.3c0,2.1-1.7,3.9-3.9,3.9c-1,0-2,0-3.1,0c-27,0-53.9,0-80.9,0c-0.5,0-1.1,0-1.6,0
	c-1.8-0.2-3.2-1.7-3.2-3.6c0-2.5,0-5.1,0-7.6c0-1.4,0-2.8,0-4.2c0-2,1.7-3.6,3.7-3.6c2.4,0,4.8,0,7.2,0c1.5,0,1.5,0,1.5-1.6
	c0-1.8,0-3.7,0-5.5c0-0.7-0.2-1.1-1-1.1c-2.8-0.2-5.4-0.9-7.7-2.5C4,65.1,1.7,62,1.2,58C0.6,54,1,50.2,3.5,46.8
	c1.9-2.5,4.2-4.3,7.1-5.4c1.2-0.4,1.2-0.4,1.2-1.8"/>
<path class="st0" d="M50,46.6c11.3,0,22.6,0,33.9,0c4.2,0,7.6,2.4,8.7,6.1c1.6,5.2-1.9,10.5-7.3,11.1c-0.6,0.1-1.1,0.1-1.7,0.1
	c-22.5,0-45,0-67.5,0c-4.2,0-7.4-2-8.7-5.5C5.3,52.8,9,47.1,15,46.6c0.4,0,0.9,0,1.3,0C27.5,46.6,38.7,46.6,50,46.6z"/>
<path class="st0" d="M50,84.1c13.1,0,26.2,0,39.3,0c0.8,0,1.1,0.1,1.1,1c-0.1,1.7,0,3.5,0,5.2c0,0.6-0.1,0.9-0.7,0.8
	c-0.1,0-0.3,0-0.4,0c-26.1,0-52.3,0-78.4,0c-0.9,0-1.1-0.2-1.1-1.1c0.1-1.6,0.1-3.2,0-4.9c0-0.8,0.1-1.1,1.1-1.1
	C23.8,84.1,36.9,84.1,50,84.1z"/>
<path class="st0" d="M49.9,69.6c3.2,0,6.4,0,9.5,0c0.6,0,0.9,0.1,0.9,0.8c0,2.4,0,4.8,0,7.2c0,0.6-0.1,0.8-0.8,0.8
	c-6.5,0-13,0-19.4,0c-0.5,0-0.7-0.1-0.7-0.7c0-2.5,0-5,0-7.5c0-0.6,0.2-0.7,0.7-0.7C43.4,69.6,46.6,69.6,49.9,69.6z"/>
<path class="st0" d="M71.8,78.4c-1.7,0-3.4,0-5,0c-0.6,0-0.8-0.1-0.7-0.7c0-2.5,0-4.9,0-7.4c0-0.5,0.2-0.7,0.7-0.7
	c3.4,0,6.9,0,10.3,0c0.6,0,0.8,0.2,0.7,0.7c0,2.5,0,4.9,0,7.4c0,0.6-0.2,0.7-0.7,0.7C75.3,78.4,73.5,78.4,71.8,78.4z"/>
<path class="st0" d="M27.8,78.4c-1.7,0-3.4,0-5.1,0c-0.5,0-0.7-0.2-0.7-0.7c0-2.5,0-5,0-7.5c0-0.5,0.1-0.6,0.6-0.6
	c3.5,0,6.9,0,10.4,0c0.6,0,0.7,0.2,0.7,0.7c0,2.5,0,5,0,7.4c0,0.6-0.1,0.8-0.7,0.7C31.3,78.4,29.5,78.4,27.8,78.4z"/>
<path d="M50,52.4c7.6,0,15.2,0,22.8,0c1.8,0,3,1,3.1,2.7c0.1,1.4-0.8,2.6-2.2,3c-0.5,0.1-1,0.1-1.5,0.1c-14.9,0-29.7,0-44.6,0
	c-0.4,0-0.8,0-1.2-0.1c-1.6-0.3-2.5-1.5-2.5-3c0.1-1.5,1.3-2.6,2.8-2.6c3.3,0,6.6,0,9.9,0C41.1,52.4,45.5,52.4,50,52.4z"/>
<path d="M84.4,52.4c1.5,0,2.8,1.3,2.8,2.8c0,1.6-1.3,2.8-2.9,2.8c-1.5,0-2.8-1.3-2.8-2.8C81.6,53.7,82.9,52.4,84.4,52.4z"/>
<path d="M15.4,52.4c1.6,0,2.9,1.3,2.8,2.8c0,1.5-1.3,2.8-2.8,2.8c-1.6,0-2.9-1.3-2.8-2.8C12.6,53.7,13.9,52.4,15.4,52.4z"/>
<g>
	<g>
		<path d="M84.7,34.5c-10.4,0-20.7,0-31.1,0c-1.5,0-2.8,1.3-2.8,2.8c0,1.1,0,2.2,0,3.3c0,1.5,1.3,2.8,2.8,2.8c10.4,0,20.7,0,31.1,0
			c1.5,0,2.8-1.3,2.8-2.8c0-1.1,0-2.2,0-3.3c0-3.6-5.6-3.6-5.6,0c0,1.1,0,2.2,0,3.3c0.9-0.9,1.9-1.9,2.8-2.8c-10.4,0-20.7,0-31.1,0
			c0.9,0.9,1.9,1.9,2.8,2.8c0-1.1,0-2.2,0-3.3c-0.9,0.9-1.9,1.9-2.8,2.8c10.4,0,20.7,0,31.1,0C88.4,40.1,88.4,34.5,84.7,34.5z"/>
	</g>
</g>
<path d="M-151,103.2c-1.9-0.5-3.9-0.8-5.7-1.6c-12.7-5.2-16.1-22-6.4-31.7c0.5-0.5,0.7-1,0.7-1.8c0-16.4,0-32.9,0-49.3
	c0-5.1,2.1-9.1,6.5-11.8c7.6-4.6,17.7-0.3,19.6,8.3c0.1,0.3,0.1,0.5,0.2,0.9c3.9,0,7.8,0,11.6,0c0.5,0,1,0,1.4,0.1
	c1.5,0.4,2.4,1.8,2.3,3.4c-0.2,1.6-1.5,2.7-3.2,2.7c-3.3,0-6.7,0-10,0c-0.6,0-1.2,0-1.9,0c0,4.5,0,8.9,0,13.4c1.6,0,3.2,0,4.8,0
	c1.1,0,2.1,0,3.2,0c1.9,0,3.3,1.4,3.3,3.2c0,1.8-1.4,3.1-3.3,3.2c-2.6,0-5.2,0-7.9,0c0,4.5,0,8.9,0,13.4c1.3,0,2.7,0,4,0
	c2.3,0.1,3.9,2.2,3,4.3c-0.5,1.3-1.5,2-2.9,2c-1.4,0-2.7,0-4.2,0c0,2.4,0,4.6,0,6.9c0,0.3,0.3,0.6,0.5,0.8c9.7,9.8,6.7,26.2-6,31.7
	c-1.6,0.7-3.5,1-5.2,1.5c-0.2,0.1-0.4,0.1-0.6,0.2C-148.5,103.2-149.7,103.2-151,103.2z M-142.2,44.6c0-4.1,0-8.2,0-12.2
	c0-4.6,0-9.2,0-13.8c0-2.8-1.3-4.9-3.7-6.2c-2.4-1.3-4.8-1.1-7.1,0.4c-2.2,1.5-3,3.7-3,6.3c0,16.9,0,33.9,0,50.8
	c0,1.6-0.5,2.7-1.7,3.7c-4.1,3.4-5.7,9.1-4,14.2c1.7,5.1,6.5,8.8,11.8,9c5.7,0.3,11-3.1,13-8.4c2.1-5.3,0.6-11.3-3.8-15
	c-1.1-0.9-1.6-2-1.6-3.4C-142.2,61.6-142.2,53.1-142.2,44.6z"/>
<path d="M-196.4,10.6c-0.3,0.7-0.7,1.4-1,2.1c-0.8,1.6-1.8,3.1-2.4,4.7c-0.8,2-0.5,4,0.5,5.9c0.5,1,1.1,2,1.7,3
	c3.7,5.8,3.5,11.6,0.2,17.4c-0.4,0.8-0.9,1.5-1.5,2.2c-1,1.4-2.9,1.7-4.3,0.7c-1.4-1-1.8-2.8-0.9-4.3c0.8-1.3,1.6-2.6,2.2-4
	c1.1-2.6,0.9-5.2-0.5-7.6c-0.6-1.1-1.3-2.2-2-3.4c-2.7-4.6-2.9-9.4-0.7-14.2c0.8-1.7,1.9-3.3,3-4.8c0.8-1.1,2.3-1.4,3.5-0.9
	C-197.3,8.1-196.5,9.2-196.4,10.6z"/>
<path d="M-183.9,7.3c1.2,0.1,2.1,0.5,2.7,1.6c0.6,1.1,0.6,2.3-0.1,3.3c-0.6,1-1.3,1.9-1.9,3c-1.7,3.1-1.7,6.1,0.2,9.1
	c0.7,1.2,1.5,2.4,2.1,3.6c2,3.8,2.4,7.7,1,11.7c-0.8,2.1-2,4.1-3.1,6.1c-1,1.6-2.9,1.9-4.4,0.9c-1.5-1-1.8-2.9-0.8-4.5
	c0.8-1.2,1.5-2.5,2.1-3.8c1.1-2.6,0.9-5.1-0.4-7.5c-0.6-1.1-1.3-2.2-2-3.4c-2.8-4.7-3-9.5-0.6-14.4c0.7-1.5,1.8-3,2.7-4.4
	C-185.9,7.8-185,7.4-183.9,7.3z"/>
<path d="M-146,61.8c0,4.7,0,9.5,0,14.2c0,0.7,0.2,1.1,0.8,1.4c2.8,1.8,4,5.1,3.1,8.2c-0.9,3.1-3.8,5.2-7,5.2c-3.2,0-6.1-2.2-7-5.3
	c-0.9-3.2,0.3-6.5,3.1-8.2c0.6-0.4,0.7-0.8,0.7-1.4c0-9.5,0-18.9,0-28.4c0-1.8,0.9-3.1,2.4-3.5c2.1-0.5,3.9,0.9,3.9,3.1
	c0,4.5,0,8.9,0,13.4C-146,61.1-146,61.4-146,61.8z"/>
<path d="M28.1,14.5c-0.2,0.2-0.3,0.5-0.5,0.7c-0.4,0.5-0.9,1-1.2,1.5c-0.4,0.6-0.2,1.3,0.2,1.9c0.3,0.3,0.5,0.6,0.8,1
	c1.8,1.9,1.7,3.7,0.1,5.6c-0.2,0.2-0.5,0.5-0.7,0.7c-0.5,0.4-1.4,0.5-2.1,0.2c-0.7-0.3-0.9-0.9-0.5-1.4c0.4-0.4,0.8-0.8,1.1-1.3
	c0.5-0.8,0.5-1.7-0.2-2.5c-0.3-0.4-0.7-0.7-1-1.1c-1.3-1.5-1.4-3-0.3-4.6c0.4-0.5,0.9-1.1,1.4-1.5c0.4-0.4,1.1-0.5,1.7-0.3
	C27.6,13.6,28,14,28.1,14.5z"/>
<path d="M34.1,13.4c0.6,0,1,0.2,1.3,0.5c0.3,0.4,0.3,0.7-0.1,1.1c-0.3,0.3-0.6,0.6-0.9,1c-0.8,1-0.8,2,0.1,3c0.4,0.4,0.7,0.8,1,1.2
	c1,1.2,1.2,2.5,0.5,3.8c-0.4,0.7-0.9,1.3-1.5,2c-0.5,0.5-1.4,0.6-2.1,0.3c-0.7-0.3-0.9-0.9-0.4-1.4c0.4-0.4,0.7-0.8,1-1.2
	c0.5-0.8,0.5-1.6-0.2-2.4c-0.3-0.4-0.6-0.7-1-1.1c-1.4-1.5-1.4-3.1-0.3-4.7c0.4-0.5,0.8-1,1.3-1.4C33.1,13.6,33.6,13.4,34.1,13.4z"
	/>
<path d="M67.8,14.6c-0.2,0.2-0.3,0.5-0.5,0.7c-0.4,0.5-0.9,1-1.2,1.5c-0.4,0.6-0.2,1.3,0.2,1.9c0.3,0.3,0.5,0.6,0.8,1
	c1.8,1.9,1.7,3.7,0.1,5.6c-0.2,0.2-0.5,0.5-0.7,0.7c-0.5,0.4-1.4,0.5-2.1,0.2c-0.7-0.3-0.9-0.9-0.5-1.4c0.4-0.4,0.8-0.8,1.1-1.3
	c0.5-0.8,0.5-1.7-0.2-2.5c-0.3-0.4-0.7-0.7-1-1.1c-1.3-1.5-1.4-3-0.3-4.6c0.4-0.5,0.9-1.1,1.4-1.5c0.4-0.4,1.1-0.5,1.7-0.3
	C67.3,13.8,67.7,14.1,67.8,14.6z"/>
<path d="M73.8,13.5c0.6,0,1,0.2,1.3,0.5c0.3,0.4,0.3,0.7-0.1,1.1c-0.3,0.3-0.6,0.6-0.9,1c-0.8,1-0.8,2,0.1,3c0.4,0.4,0.7,0.8,1,1.2
	c1,1.2,1.2,2.5,0.5,3.8c-0.4,0.7-0.9,1.3-1.5,2c-0.5,0.5-1.4,0.6-2.1,0.3c-0.7-0.3-0.9-0.9-0.4-1.4c0.4-0.4,0.7-0.8,1-1.2
	c0.5-0.8,0.5-1.6-0.2-2.4c-0.3-0.4-0.6-0.7-1-1.1c-1.4-1.5-1.4-3.1-0.3-4.7c0.4-0.5,0.8-1,1.3-1.4C72.9,13.7,73.3,13.6,73.8,13.5z"
	/>
<g>
	<g>
		<path d="M45.7,34.6c-10.4,0-20.7,0-31.1,0c-1.5,0-2.8,1.3-2.8,2.8c0,1.1,0,2.2,0,3.3c0,1.5,1.3,2.8,2.8,2.8c10.4,0,20.7,0,31.1,0
			c1.5,0,2.8-1.3,2.8-2.8c0-1.1,0-2.2,0-3.3c0-3.6-5.6-3.6-5.6,0c0,1.1,0,2.2,0,3.3c0.9-0.9,1.9-1.9,2.8-2.8c-10.4,0-20.7,0-31.1,0
			c0.9,0.9,1.9,1.9,2.8,2.8c0-1.1,0-2.2,0-3.3c-0.9,0.9-1.9,1.9-2.8,2.8c10.4,0,20.7,0,31.1,0C49.3,40.2,49.3,34.6,45.7,34.6z"/>
	</g>
</g>
</svg>
