<?xml version="1.0" encoding="utf-8"?>
<!-- Generator: Adobe Illustrator 22.1.0, SVG Export Plug-In . SVG Version: 6.00 Build 0)  -->
<svg version="1.1" id="Слой_1" xmlns="http://www.w3.org/2000/svg" xmlns:xlink="http://www.w3.org/1999/xlink" x="0px" y="0px"
	 viewBox="0 0 100 100" style="enable-background:new 0 0 100 100;" xml:space="preserve">
<style type="text/css">
	.st0{fill:#FEFEFE;}
	.st1{fill:#0D0D0D;}
	.st2{fill:#5B5B5B;}
	.st3{fill:#5C5C5C;}
	.st4{fill:#3B3B3B;}
	.st5{fill:#808080;}
	.st6{fill:#474747;}
	.st7{fill:#5F5F5F;}
	.st8{fill:#828282;}
	.st9{fill:#363636;}
	.st10{fill:#494949;}
	.st11{fill:#626262;}
	.st12{fill:#818181;}
</style>
<path d="M0.4,52.4c0-0.2,0-0.4,0-0.6c0.2-0.4,0.2-0.8,0-1.2c0-0.3,0-0.5,0-0.8c0.2-0.4,0.2-0.8,0-1.2c0-0.3,0-0.5,0-0.8
	c0.2-0.2,0.1-0.4,0.1-0.5c0-0.1,0-0.3-0.1-0.4c0-0.3,0-0.5,0-0.8c0.2-2.2,0.4-4.5,0.9-6.7c1.3-5.6,3.4-10.8,6.5-15.7
	c2.4-3.9,5.4-7.4,8.7-10.4c6-5.4,12.9-9.2,20.6-11.3C42.5,0.5,48,0.4,53.6,0.6c5.8,0.2,11.4,1.6,16.7,4c5.1,2.2,9.8,5.2,13.9,9.1
	c4.6,4.2,8.2,9.1,10.9,14.7c2.6,5.3,4.3,10.9,4.6,16.8c0.4,6.2,0.3,12.4-1.4,18.5c-2,7.1-5.3,13.4-10,19c-5.9,7-13.2,11.9-21.8,14.9
	c-4,1.4-8.1,2.3-12.3,2.4c-0.1,0-0.3,0-0.4,0.1c-0.1,0-0.3,0-0.4,0c-0.1-0.1-0.3-0.1-0.4-0.1c-0.1,0-0.2,0-0.3,0c-0.1,0-0.2,0-0.3,0
	c-0.1,0-0.3,0-0.4,0.1c-1.2,0-2.3,0-3.5,0c-0.2-0.2-0.4-0.1-0.6-0.1c-0.2,0-0.3,0-0.5,0c-0.2,0-0.3,0-0.5,0.1c-0.3,0-0.5,0-0.8,0
	c-1.8-0.2-3.6-0.3-5.4-0.6c-8.2-1.6-15.7-5-22.2-10.4C8.8,81,2.9,70.8,0.8,58.4c-0.2-1.4-0.2-2.8-0.4-4.1c0-0.4,0-0.8,0-1.2
	c0.1-0.1,0.1-0.3,0.1-0.4C0.5,52.6,0.5,52.5,0.4,52.4z"/>
<path class="st0" d="M0.4,54.3c0.5,1.1,0.4,2.2,0.5,3.4c2.4,14.6,9.7,26,22.1,34.2c6.8,4.5,14.4,7,22.5,7.8c0.2,0,0.4-0.1,0.5,0.2
	c-14.9,0-29.9,0-44.8,0c-0.7,0-0.8-0.1-0.8-0.8C0.4,84.2,0.4,69.3,0.4,54.3z"/>
<path class="st1" d="M0.4,48.7c0.3,0.4,0.3,0.8,0,1.2C0.4,49.5,0.4,49.1,0.4,48.7z"/>
<path class="st1" d="M0.4,50.6c0.3,0.4,0.3,0.8,0,1.2C0.4,51.4,0.4,51,0.4,50.6z"/>
<path class="st2" d="M0.6,47.3c0,0.2,0.1,0.4-0.2,0.6c0-0.2,0-0.4,0-0.6C0.4,47.3,0.5,47.3,0.6,47.3z"/>
<path class="st3" d="M47.1,99.7c0.2,0,0.4,0,0.6,0c0.1,0,0.1,0.1,0.1,0.1c0,0,0,0.1-0.1,0.1c-0.2,0-0.4,0-0.6,0
	C47.1,99.9,47.1,99.8,47.1,99.7C47.1,99.8,47.1,99.7,47.1,99.7z"/>
<path class="st4" d="M47.7,99.9c0-0.1,0-0.1,0-0.2c0.2,0,0.4-0.1,0.6,0.2C48.1,99.9,47.9,99.9,47.7,99.9z"/>
<path class="st5" d="M0.6,47.3c-0.1,0-0.1,0-0.2,0c0-0.1,0-0.3,0-0.4C0.6,47,0.6,47.2,0.6,47.3z"/>
<path class="st6" d="M0.4,52.4c0.2,0.1,0.2,0.2,0.2,0.4c-0.1,0.1-0.1,0.1-0.2,0C0.4,52.6,0.4,52.5,0.4,52.4z"/>
<path class="st7" d="M0.4,52.8c0.1,0,0.1,0,0.2,0c0,0.2,0,0.3-0.2,0.4C0.4,53,0.4,52.9,0.4,52.8z"/>
<path class="st8" d="M47.1,99.7c0,0.1,0,0.1,0,0.2c-0.1,0-0.3,0-0.4,0C46.8,99.7,47,99.7,47.1,99.7z"/>
<path class="st9" d="M51.8,99.9c0.1-0.2,0.2-0.2,0.4-0.2c0.1,0,0.1,0.1,0.1,0.1c0,0,0,0.1-0.1,0.1C52.1,99.9,51.9,99.9,51.8,99.9z"
	/>
<path class="st10" d="M52.2,99.9c0-0.1,0-0.1,0-0.2c0.1,0,0.3,0,0.4,0c0.1,0,0.1,0.1,0.1,0.1c0,0,0,0.1-0.1,0.1
	C52.4,99.9,52.3,99.9,52.2,99.9z"/>
<path class="st11" d="M52.6,99.9c0-0.1,0-0.1,0-0.2c0.1,0,0.3,0,0.4,0c0.1,0,0.1,0.1,0.1,0.1c0,0,0,0.1-0.1,0.1
	C52.8,99.9,52.7,99.9,52.6,99.9z"/>
<path class="st12" d="M53,99.9c0-0.1,0-0.1,0-0.2c0.2,0,0.3-0.1,0.4,0.2C53.2,99.9,53.1,99.9,53,99.9z"/>
<path class="st0" d="M50.1,7.4c23.7,0.1,42.9,19.4,42.8,43C92.8,74,73.6,93.2,50,93.1c-23.7-0.1-42.9-19.4-42.8-43
	C7.3,26.5,26.5,7.3,50.1,7.4z"/>
<path d="M14.5,62.3c0-3,0.6-5.7,1.9-8.2c1.2-2.3,3.3-2.8,5.4-1.4c4.5,3,9.3,3.4,14.3,1.4c0.6-0.2,0.8-0.5,0.6-1.2
	c-0.6-3.4,0-6.5,1.7-9.5c0.3-0.5,0.3-0.7-0.1-1.1c-5.4-4.7-7.5-10.6-5.8-17.6C34.1,18,38.6,13.6,45.5,12c6.9-1.7,14.6,1.6,18.4,7.7
	c1.4,2.2,0.8,4.2-1.5,5.4c-4.5,2.3-7.2,5.9-8.2,10.8c0,0.2,0,0.3-0.1,0.5c-0.2,0.8,0,1.3,0.9,1.6c3.1,1.2,5.4,3.3,7,6.2
	c0.3,0.6,0.5,0.7,1.1,0.5c6.7-2.3,12.8-1.2,17.9,3.6c5.1,4.8,6.7,10.8,4.8,17.4c-2,6.8-6.7,10.8-13.6,12.3c-0.8,0.2-1.7,0.2-2.6,0.2
	c-2.3,0-3.8-1.5-3.6-3.9c0.2-3-0.3-5.8-1.8-8.5c-1.1-2-2.6-3.6-4.4-5c-0.4-0.3-0.7-0.3-1.1,0c-2.6,2.1-5.6,3.2-8.9,3.1
	c-0.6,0-0.8,0.1-0.9,0.8c-1.1,8-8,14.5-16,14.8c-8.7,0.4-16.1-5.1-17.9-13.3C14.6,64.9,14.5,63.5,14.5,62.3z"/>
<path class="st0" d="M21.4,60.3c3.3,1.4,6.7,2,10.3,1.8c2.7-0.2,5.3-0.9,7.8-2.1c0.5-0.2,0.9-0.3,1.2,0.2c0.1,0.1,0.2,0.2,0.3,0.3
	c1.5,0.8,1.4,2.1,1.2,3.5c-0.8,4.8-4.8,8.5-9.5,8.8c-5.3,0.3-9.6-2.6-11-7.6C21.2,63.6,21.1,62.2,21.4,60.3z"/>
<path class="st0" d="M72.8,70.8c-0.4-3.5-1.5-6.7-3.4-9.6c-1.5-2.3-3.4-4.3-5.6-5.8c-0.6-0.4-0.8-0.8-0.5-1.4
	c0.1-0.2,0.1-0.4,0.1-0.6c-0.1-1.5,0.9-2,2.1-2.5c5.4-2.1,11.6,0.7,13.6,6.2C81.2,62.5,78.3,68.8,72.8,70.8z"/>
<path class="st0" d="M56.1,20.9c-2.6,2-4.7,4.3-6.3,7.1c-1.4,2.6-2.3,5.4-2.6,8.4c0,0.5-0.2,0.8-0.7,0.9c-0.5,0.1-1,0.2-1.4,0.5
	c-0.8,0.5-1.4,0.2-2.2-0.3c-4.7-3.5-5.7-10-2.4-14.7c3.4-4.7,9.8-5.9,14.6-2.6C55.6,20.4,55.8,20.6,56.1,20.9z"/>
<path class="st0" d="M56.9,50.4c0,3.7-3,6.8-6.7,6.8c-3.8,0-6.9-3-6.9-6.8c0-3.7,3.1-6.8,6.8-6.8C53.8,43.6,56.8,46.7,56.9,50.4z"/>
</svg>
