<?xml version="1.0" encoding="UTF-8"?>
<svg width="269px" height="54px" viewBox="0 0 269 54" version="1.1" xmlns="http://www.w3.org/2000/svg" xmlns:xlink="http://www.w3.org/1999/xlink">
    <!-- Generator: Sketch 46.2 (44496) - http://www.bohemiancoding.com/sketch -->
    <title>TC_Logo_CMYK (1)</title>
    <desc>Created with Sketch.</desc>
    <defs></defs>
    <g id="Homepage" stroke="none" stroke-width="1" fill="none" fill-rule="evenodd">
        <g transform="translate(-19.000000, -19.000000)" id="TC_Logo_CMYK-(1)">
            <g transform="translate(19.000000, 19.000000)">
                <path d="M142.225748,34.9094383 C138.888043,38.2690908 134.411393,40.3878581 129.750104,40.3878581 C126.783706,40.3878581 124.148711,39.521554 122,38.0361695 C124.563303,41.2779991 128.502269,43.2993753 133.191964,43.2993753 C142.346812,43.2993753 150.866583,35.6109267 152.195578,26.1149538 C153.472495,17.1175143 147.82173,9.73894647 139.441284,9 C143.543246,10.610699 146.49747,14.1392535 147.461921,18.6076662 C147.204238,17.8578229 146.853897,17.1365839 146.428484,16.452803 C142.990005,11.0574722 135.506377,10.2047892 129.687205,14.5431201 C124.180499,18.6580644 122.158262,25.9596728 124.883209,31.2964328 C123.999241,26.7258616 126.036357,21.4592505 130.331074,18.2521547 C132.721912,16.465062 135.436038,15.6130601 137.972964,15.647113 L137.965525,15.6763984 C143.759672,15.6763984 147.765595,20.5439103 146.927618,26.5474247 C146.82752,27.2209898 146.676022,27.8836579 146.464329,28.5279375 C145.743358,30.7747434 144.669341,32.0905449 143.401892,33.6154307 L142.225748,34.9094383" id="Fill-1" fill="#FFFFFE"></path>
                <path d="M140.843988,34.3788406 C136.216516,37.5764016 130.358793,37.9121626 126.242628,34.7575081 C121.007808,30.7297391 120.595921,22.5945173 125.322815,16.5828302 C126.943986,14.5130991 128.972309,12.9752731 131.129813,12 C127.583797,12.6456417 124.074303,14.6847253 121.501531,17.9558405 C116.475698,24.3475572 116.911257,32.9935714 122.478833,37.268564 C127.762349,41.3174459 135.74714,39.9750832 140.843988,34.3788406" id="Fill-2" fill="#FFFFFE"></path>
                <path d="M34.483675,21.7362768 L34.9151757,18.6681166 C34.999041,18.0749162 34.568893,18 33.8817384,18 L20.6830933,18 C19.994586,18 19.5414426,18.0749162 19.4582536,18.6681166 L19.022695,21.7362768 C18.9760279,22.0842968 18.9347716,22.3778322 19.6219263,22.3778322 L22.9379886,22.3778322 C23.3316146,22.3778322 23.4952873,22.4513863 23.4384753,22.8498044 L21.6860956,35.2974769 C21.581264,36.0159917 21.836918,36.1120207 22.820983,36.1120207 L26.361588,36.1120207 C27.2414977,36.1120207 27.6385053,35.9403944 27.727105,35.2974769 L29.484219,22.8498044 C29.541031,22.4513863 29.7249937,22.3778322 30.1145617,22.3778322 L33.7038627,22.3778322 C34.39237,22.3778322 34.4343027,22.0842968 34.483675,21.7362768" id="Fill-3" fill="#FFFFFE"></path>
                <path d="M58.1042595,30.4939843 L59.7511312,18.8138627 C59.8417598,18.1736694 59.4501628,18 58.5864851,18 L54.6874235,18 C53.9928291,18 53.7723445,18.1736694 53.7074165,18.6429175 L52.2526234,28.939132 C52.0652791,30.2753652 51.7088514,31.4072813 50.3609191,31.4072813 C49.5959861,31.4072813 49.0062234,30.5702627 49.2240028,28.9881681 L50.6571531,18.8138627 C50.7538688,18.1736694 50.4055571,18 49.5188841,18 L45.7855241,18 C45.0970167,18 44.8758557,18.1736694 44.8095751,18.6429175 L43.0788381,30.9196448 C42.3098471,36.3633306 47.3634098,36.4355226 49.6710591,36.4355226 C51.7846008,36.4355226 57.2493741,36.5621991 58.1042595,30.4939843" id="Fill-4" fill="#FFFFFE"></path>
                <path d="M78.438498,23.8911401 C78.2957917,25.0475743 77.6498933,25.6114892 76.6056347,25.6189808 L75.0405993,25.6312398 C74.652384,25.6312398 74.5685186,25.5066065 74.6185673,25.1619918 L74.9601156,22.7735261 C74.9864926,22.5746576 75.094706,22.3287961 75.463984,22.3287961 L76.768631,22.3287961 C78.1185923,22.3287961 78.5372427,23.0622941 78.438498,23.8911401 M84.369265,24.1118024 C84.8413457,20.7712195 82.7528284,18 77.8839047,18 L70.3637543,18 C69.677276,18 69.4554386,18.1736694 69.3857763,18.6429175 L67.0463393,35.2484409 C66.9665319,35.81508 66.8995749,36.1120207 67.6611263,36.1120207 L71.7177736,36.1120207 C72.7972016,36.1120207 72.9872513,35.9642314 73.0826143,35.3185897 L73.7521843,30.5702627 C73.7832956,30.3502814 73.8259046,30.2276912 73.9983696,30.2276912 L74.658471,30.2276912 C74.8586656,30.2276912 74.9053326,30.2276912 74.9756713,30.4211113 L76.4149087,35.3717121 C76.549499,35.81508 76.5102717,36.0888648 77.3685387,36.1120207 L82.0616157,36.1120207 C82.821138,36.1385819 82.7447124,35.6420916 82.6270304,35.2484409 L80.90982,28.939132 C80.8333943,28.6408292 80.798225,28.6912274 81.1708847,28.4923588 C82.1542734,27.9720316 84.0250114,26.5636064 84.369265,24.1118024" id="Fill-5" fill="#FFFFFE"></path>
                <path d="M103.180407,30.8835488 C102.974802,32.1455467 101.812861,32.3961756 100.830825,32.3914082 L99.5295601,32.3914082 C99.1393157,32.3784681 99.1298471,32.2150145 99.1629874,31.956894 L99.4977724,29.6372151 C99.5451157,29.2837467 99.6607687,29.1604754 100.055071,29.1604754 L101.407061,29.1604754 C102.123298,29.1693292 103.424564,29.39544 103.180407,30.8835488 M103.956162,23.289767 C103.609879,24.7349693 102.729293,24.9283894 101.93663,24.9515453 L100.583287,24.9515453 C100.161932,24.9399673 100.11053,24.8248687 100.157874,24.4782109 L100.492659,22.1135822 C100.529181,21.8881524 100.630631,21.6715764 101.000585,21.6715764 L102.301174,21.6715764 C103.472583,21.6640848 104.248338,22.062503 103.956162,23.289767 M108.828467,31.536001 C109.269436,28.3922435 107.793677,27.5531817 107.006425,27.0314923 C108.392232,26.2646225 109.4791,24.8534731 109.801034,22.5760197 C110.208187,19.682891 108.357063,18 103.562536,18 L96.2128214,18 C95.453299,18 95.433009,18.2948975 95.353878,18.8669851 L93.0130884,35.4752327 C92.947484,35.9403944 93.115891,36.1127018 93.8064274,36.1127018 L102.063105,36.1127018 C106.092022,36.1127018 108.392232,34.6279982 108.828467,31.536001" id="Fill-6" fill="#FFFFFE"></path>
                <path d="M174.421031,17.9391771 C174.152527,17.6190805 173.00276,17 169.790177,17 C162.690029,17 160.370882,20.1907504 159.83455,23.9249841 L159.077733,29.3727563 C158.594831,32.7868933 160.29378,35.7065832 166.092662,35.7065832 C169.291043,35.7065832 171.545938,35.0861405 171.909805,34.7646818 C172.210774,34.4943023 171.71705,30.5080777 171.284197,30.6088741 C170.678879,30.7580255 169.466213,31.280396 167.260014,31.280396 C165.293236,31.280396 165.116713,30.2628973 165.374396,28.4301739 L165.931695,24.5215897 C166.321939,21.7231279 168.329297,21.6005377 169.732012,21.6005377 C171.524295,21.6005377 172.093768,21.7490081 172.667299,21.8981595 C173.059572,21.9982748 174.659777,18.2102377 174.421031,17.9391771" id="Fill-7" fill="#FFFFFE"></path>
                <path d="M197.97791,35.3185897 L200.290294,18.8145438 C200.381599,18.1736694 200.341695,18 199.476665,18 L195.415959,18 C194.733539,18 194.343971,18.1736694 194.271603,18.6429175 L193.513434,24.0627663 C193.464738,24.359026 193.336911,24.4816162 193.033913,24.4816162 L190.163555,24.4816162 C189.7679,24.4816162 189.606932,24.4060189 189.661039,24.0130492 L190.387421,18.8145438 C190.484137,18.1736694 190.140559,18 189.254563,18 L185.354148,18 C184.658878,18 184.432982,18.1736694 184.373465,18.6429175 L182.029294,35.2484409 C181.946105,35.81508 182.007651,36.1120207 182.64611,36.1120207 L186.700728,36.1120207 C187.559671,36.1120207 187.974264,35.9642314 188.068274,35.3185897 L188.902193,29.4070179 C188.951565,29.0126861 189.053015,28.9881681 189.353984,28.9881681 L192.35014,28.9881681 C192.745119,28.9881681 192.801931,29.1114393 192.754588,29.4778478 L191.934872,35.2484409 C191.85033,35.81508 192.062022,36.1120207 192.818839,36.1120207 L196.874134,36.1120207 C197.73443,36.1120207 197.879842,35.9642314 197.97791,35.3185897" id="Fill-8" fill="#FFFFFE"></path>
                <path d="M220.673105,35.3982733 L221.128954,32.1584868 C221.191853,31.6599533 220.755618,31.512164 219.666721,31.512164 L215.320603,31.512164 C214.805237,31.512164 214.314895,31.5366821 214.390645,30.9645945 L214.577989,29.6038433 C214.630067,29.2612718 214.955383,29.0385663 215.351038,29.0385663 L218.715796,29.0385663 C218.98633,29.0385663 219.837157,29.1114393 220.037352,28.2185741 L220.679192,25.2035362 C220.755618,24.8813964 220.673105,24.5286091 219.996095,24.5286091 L215.789302,24.5286091 C215.520121,24.5286091 215.269202,24.359026 215.332777,23.962651 L215.494421,22.8007684 C215.520121,22.604624 215.646596,22.4043934 216.17887,22.4043934 L220.840159,22.4043934 C221.524609,22.4043934 221.970312,22.3294772 222.056207,21.7362768 L222.486355,18.6681166 C222.535727,18.3194156 222.508674,18 221.92094,18 L211.102988,18 C210.470617,18 210.395544,18.34802 210.329263,18.8145438 L208.011469,35.2484409 C207.917458,35.9192817 208.422679,36.1120207 208.750025,36.1120207 L220.056289,36.1120207 C220.294358,36.1120207 220.60953,35.8927205 220.673105,35.3982733" id="Fill-9" fill="#FFFFFE"></path>
                <path d="M245.10429,21.4638542 L245.493858,18.6681166 C245.549993,18.3187345 245.516177,18 244.931825,18 L234.11252,18 C233.482178,18 233.406428,18.34802 233.343529,18.8138627 L231.010179,35.2484409 C230.920903,35.9192817 231.439651,36.1120207 231.75347,36.1120207 L236.155047,36.1120207 C236.399203,36.1120207 236.708288,35.8920394 236.77795,35.3975923 L237.517859,30.1228085 C237.568584,29.7768317 237.895929,29.5078143 238.296318,29.5078143 L241.482525,29.5078143 C241.751029,29.5078143 242.52746,29.5813684 242.805433,28.6919084 L243.354615,25.6707411 C243.452007,25.3506445 243.354615,25.0039866 242.662726,25.0039866 L238.733906,25.0039866 C238.463373,25.0039866 238.215835,24.8289551 238.277381,24.4332612 L238.510716,22.8007684 C238.537093,22.603943 238.650041,22.4043934 239.202605,22.4043934 L243.842252,22.4043934 C244.674818,22.4043934 244.989313,22.255923 245.10429,21.4638542" id="Fill-10" fill="#FFFFFE"></path>
                <path d="M262.94225,10.3207326 C263.823512,10.4378743 264.431536,10.9023549 264.294916,12.0635565 C264.11163,13.7484907 261.866203,30.6584464 260.966004,37.3682166 C260.436435,41.2604554 260.479044,40.9757737 257.782503,41.3959856 C254.587504,41.8917949 138.091792,53.0924526 131.766723,53.1040306 C119.203831,52.6218425 6.45094771,42.4264244 1.63883601,41.7508162 C0.143463007,41.5424128 -0.0533499945,40.6972215 0.0102253392,39.9868794 C0.0744770062,39.2833479 3.68068636,12.682637 3.76725703,12.1091873 C3.89981836,11.1870366 4.07701769,10.7838511 4.94001903,10.5161958 C5.47161703,10.4153994 129.150665,0.239050886 138.632182,0 C147.643648,0 261.682241,10.1491063 262.94225,10.3207326" id="Fill-11" fill="#00A4C7"></path>
                <path d="M142.166907,34.8338411 C138.837318,38.1832777 134.374195,40.2952344 129.726432,40.2952344 C126.769503,40.2952344 124.142624,39.4309735 122,37.9510374 C124.555187,41.1833323 128.482655,43.1978978 133.158824,43.1978978 C142.286618,43.1978978 150.781365,35.5319241 152.106978,26.0638745 C153.379838,17.0929962 147.745981,9.7369033 139.389883,9 C143.480347,10.6059316 146.425102,14.1229082 147.387524,18.5783808 C147.130518,17.8319427 146.780177,17.1127469 146.35544,16.4303281 C142.928459,11.0506616 135.466473,10.2007029 129.664209,14.5267748 C124.173735,18.6294601 122.157586,25.9092746 124.874417,31.2303703 C123.993831,26.6727392 126.024183,21.4224734 130.30605,18.2249124 C132.690125,16.4419061 135.396134,15.5939905 137.925621,15.6266813 L137.918181,15.6566478 C143.696097,15.6566478 147.689169,20.5098575 146.854574,26.4956644 C146.7538,27.1665052 146.603654,27.8278112 146.391962,28.4700477 C145.673696,30.710043 144.602384,32.0238013 143.338993,33.5418766 L142.166907,34.8338411" id="Fill-12" fill="#FFFFFE"></path>
                <path d="M141.777489,34.3120971 C137.162867,37.5008044 131.322052,37.8358842 127.218738,34.6894025 C121.998121,30.6745735 121.588263,22.5625077 126.300953,16.5698902 C127.918066,14.5056074 129.939627,12.9725489 132.091043,12 C128.555849,12.6435985 125.0565,14.6772337 122.491168,17.938133 C117.480214,24.3114612 117.91442,32.9315953 123.465764,37.1936478 C128.733724,41.2309517 136.694844,39.8919943 141.777489,34.3120971" id="Fill-13" fill="#FFFFFE"></path>
                <path d="M35.4380094,21.7253799 L35.8681574,18.6667545 C35.9513464,18.0749162 35.5232274,18 34.8374254,18 L21.678684,18 C20.9915293,18 20.5397386,18.0749162 20.4558733,18.6667545 L20.02302,21.7253799 C19.9756766,22.0727188 19.9350966,22.3655732 20.619546,22.3655732 L23.926816,22.3655732 C24.318413,22.3655732 24.4814093,22.4391273 24.4245973,22.8348212 L22.6776283,35.2470787 C22.573473,35.9628693 22.8284506,36.0602604 23.8098103,36.0602604 L27.339594,36.0602604 C28.2174747,36.0602604 28.6131297,35.8879531 28.7003767,35.2470787 L30.454109,22.8348212 C30.5095683,22.4391273 30.6928547,22.3655732 31.0817464,22.3655732 L34.660226,22.3655732 C35.3467044,22.3655732 35.388637,22.0727188 35.4380094,21.7253799" id="Fill-14" fill="#FFFFFE"></path>
                <path d="M58.0594349,30.4585694 L59.7015722,18.8125006 C59.7915246,18.1736694 59.4006039,18 58.5396316,18 L54.6527439,18 C53.9595022,18 53.7410465,18.1736694 53.6754422,18.6415554 L52.2253835,28.9071223 C52.0387155,30.2392692 51.6836405,31.3684611 50.3390898,31.3684611 C49.5761858,31.3684611 48.9877758,30.5334856 49.2062315,28.9568395 L50.6346475,18.8125006 C50.7306868,18.1736694 50.3837278,18 49.4997602,18 L45.7772215,18 C45.0900668,18 44.8695821,18.1736694 44.8039778,18.6415554 L43.0786515,30.8815056 C42.3116895,36.3102082 47.3503728,36.3824002 49.6519352,36.3824002 C51.7587135,36.3824002 57.2072549,36.5083957 58.0594349,30.4585694" id="Fill-15" fill="#FFFFFE"></path>
                <path d="M79.404293,23.8747947 C79.2629393,25.0271426 78.6183937,25.5896954 77.5768403,25.5965059 L76.0172156,25.609446 C75.6296766,25.609446 75.5464876,25.4854937 75.59586,25.1415601 L75.936732,22.759905 C75.9624326,22.5617175 76.0713223,22.3165371 76.4392476,22.3165371 L77.7398367,22.3165371 C79.0850637,22.3165371 79.503714,23.0479919 79.404293,23.8747947 Z M85.3181517,24.0934139 C85.7888797,20.7630469 83.7064494,18 78.8517287,18 L71.3538973,18 C70.669448,18 70.4476106,18.1736694 70.3779483,18.6415554 L68.0459509,35.1987237 C67.9668199,35.7619576 67.8998629,36.0602604 68.6593853,36.0602604 L72.7038586,36.0602604 C73.7805813,36.0602604 73.9699546,35.91179 74.0646413,35.2688726 L74.7321823,30.5334856 C74.7626173,30.3141854 74.8059026,30.1915952 74.9776913,30.1915952 L75.6357636,30.1915952 C75.835282,30.1915952 75.881949,30.1915952 75.9522876,30.3856963 L77.3867907,35.321995 C77.521381,35.7619576 77.4821537,36.0364234 78.3377153,36.0602604 L83.0172657,36.0602604 C83.7740827,36.0854595 83.697657,35.5910124 83.5806514,35.1987237 L81.8688517,28.9071223 C81.7931023,28.6101816 81.757933,28.6605798 82.1285637,28.4623923 C83.1099233,27.9427461 84.9745744,26.5390883 85.3181517,24.0934139 L85.3181517,24.0934139 Z" id="Fill-16" fill="#FFFFFE"></path>
                <path d="M104.150653,30.8474528 C103.945048,32.1040023 102.787165,32.3539501 101.808511,32.3491827 L100.511303,32.3491827 C100.121059,32.3369237 100.112267,32.1734701 100.144731,31.9167117 L100.478839,29.6031622 C100.526183,29.251737 100.641836,29.1284658 101.034109,29.1284658 L102.382042,29.1284658 C103.09625,29.1366384 104.394133,29.3620682 104.150653,30.8474528 Z M104.924379,23.2754649 C104.578772,24.7158997 103.700892,24.9093198 102.910258,24.9317946 L101.561649,24.9317946 C101.141646,24.9202167 101.089568,24.8051181 101.136912,24.4598224 L101.47102,22.1020042 C101.507542,21.8765745 101.608316,21.6613606 101.976918,21.6613606 L103.274802,21.6613606 C104.442153,21.653869 105.215202,22.051606 104.924379,23.2754649 Z M109.781805,31.4978619 C110.222098,28.362277 108.750396,27.5259394 107.964497,27.0049311 C109.346922,26.2407855 110.431085,24.8337225 110.752343,22.5637606 C111.158143,19.6781236 109.312429,18 104.531429,18 L97.2033571,18 C96.4458638,18 96.4255738,18.2942165 96.3471191,18.864942 L94.0130928,35.4241535 C93.9474885,35.8879531 94.1158955,36.0602604 94.8044028,36.0602604 L103.036056,36.0602604 C107.054152,36.0602604 109.346922,34.5796432 109.781805,31.4978619 L109.781805,31.4978619 Z" id="Fill-17" fill="#FFFFFE"></path>
                <path d="M175.375015,17.937134 C175.107187,17.6177184 173.961479,17 170.758364,17 C163.679183,17 161.366799,20.1818967 160.832496,23.9052334 L160.077708,29.3366603 C159.595482,32.7405814 161.289697,35.6527797 167.071671,35.6527797 C170.260583,35.6527797 172.508715,35.0323371 172.870553,34.7136026 C173.171521,34.4432231 172.679151,30.4685764 172.246974,30.5700539 C171.643684,30.7185242 170.4344,31.2388515 168.234964,31.2388515 C166.27495,31.2388515 166.097751,30.2240771 166.355434,28.3974831 L166.910704,24.5004769 C167.298919,21.7095068 169.301542,21.5882787 170.700199,21.5882787 C172.486396,21.5882787 173.055868,21.7353869 173.626694,21.8845383 C174.018291,21.9839726 175.613085,18.2075135 175.375015,17.937134" id="Fill-18" fill="#FFFFFE"></path>
                <path d="M197.929986,35.2688726 L200.235607,18.8125006 C200.327588,18.1736694 200.287008,18 199.425359,18 L195.376828,18 C194.695084,18 194.306869,18.1736694 194.235177,18.6415554 L193.479713,24.0457399 C193.429664,24.3406375 193.30319,24.4625466 193.000869,24.4625466 L190.138626,24.4625466 C189.743647,24.4625466 189.583356,24.3883114 189.638816,23.9960228 L190.361816,18.8125006 C190.459208,18.1736694 190.114954,18 189.232339,18 L185.343423,18 C184.650857,18 184.425638,18.1736694 184.366797,18.6415554 L182.029389,35.1987237 C181.9462,35.7619576 182.00707,36.0602604 182.644176,36.0602604 L186.685944,36.0602604 C187.543535,36.0602604 187.956775,35.91179 188.049432,35.2688726 L188.880646,29.3736461 C188.930695,28.9806765 189.032145,28.9568395 189.332437,28.9568395 L192.319125,28.9568395 C192.713427,28.9568395 192.770239,29.0794297 192.721543,29.4458382 L191.904533,35.1987237 C191.820667,35.7619576 192.03236,36.0602604 192.786471,36.0602604 L196.829592,36.0602604 C197.687183,36.0602604 197.832594,35.91179 197.929986,35.2688726" id="Fill-19" fill="#FFFFFE"></path>
                <path d="M220.635946,35.3471941 L221.090442,32.1162613 C221.154017,31.619771 220.717782,31.4726628 219.632944,31.4726628 L215.299,31.4726628 C214.785663,31.4726628 214.296674,31.4978619 214.371747,30.9278174 L214.558415,29.5704715 C214.609816,29.2279 214.934456,29.0058756 215.329435,29.0058756 L218.684724,29.0058756 C218.954581,29.0058756 219.80338,29.0794297 220.001545,28.1892886 L220.642709,25.1831045 C220.717782,24.8609647 220.635946,24.5102206 219.960965,24.5102206 L215.76567,24.5102206 C215.498518,24.5102206 215.247598,24.3406375 215.311174,23.9456246 L215.472141,22.7871472 C215.498518,22.5910029 215.624316,22.3921344 216.155238,22.3921344 L220.802324,22.3921344 C221.485421,22.3921344 221.927743,22.3178992 222.01499,21.7253799 L222.443109,18.6667545 C222.493157,18.3194156 222.465428,18 221.880399,18 L211.094235,18 C210.463216,18 210.389496,18.3473389 210.321863,18.8125006 L208.011508,35.1987237 C207.917498,35.8675214 208.42069,36.0602604 208.748711,36.0602604 L220.020483,36.0602604 C220.257876,36.0602604 220.572371,35.8402791 220.635946,35.3471941" id="Fill-20" fill="#FFFFFE"></path>
                <path d="M245.063057,21.4550004 L245.451272,18.6667545 C245.506731,18.3194156 245.473591,18 244.891268,18 L234.104428,18 C233.475438,18 233.399012,18.3473389 233.336789,18.8125006 L231.010203,35.1987237 C230.920927,35.8675214 231.438322,36.0602604 231.751464,36.0602604 L236.139515,36.0602604 C236.382995,36.0602604 236.692079,35.8402791 236.760389,35.3471941 L237.497592,30.0887556 C237.548993,29.7420978 237.875662,29.4730804 238.274699,29.4730804 L241.450084,29.4730804 C241.719265,29.4730804 242.493666,29.5473156 242.76961,28.6605798 L243.318117,25.6489473 C243.414156,25.3295317 243.318117,24.984236 242.628257,24.984236 L238.710258,24.984236 C238.441077,24.984236 238.194215,24.8098855 238.255762,24.4148726 L238.48842,22.7871472 C238.514797,22.5910029 238.627069,22.3921344 239.17828,22.3921344 L243.803724,22.3921344 C244.634938,22.3921344 244.94808,22.2443451 245.063057,21.4550004" id="Fill-21" fill="#FFFFFE"></path>
                <polyline id="Fill-22" fill="#1A1919" points="262.239043 42.4501784 261 42.4501784 261 42 264.018476 42 264.018476 42.4501784 262.771317 42.4501784 262.771317 46.1054095 262.239043 46.1054095 262.239043 42.4501784"></polyline>
                <path d="M267.545339,44.3026526 C267.514904,43.7298839 267.478382,43.0413356 267.484469,42.529181 L267.466885,42.529181 C267.326884,43.0113691 267.1578,43.5296532 266.952195,44.0888008 L266.2319,46.0808915 L265.83354,46.0808915 L265.173438,44.1269399 C264.980683,43.5473607 264.817011,43.0174986 264.70271,42.529181 L264.68986,42.529181 C264.678362,43.0413356 264.647251,43.7298839 264.612082,44.3448781 L264.502516,46.1054095 L264,46.1054095 L264.284736,42 L264.957012,42 L265.652282,43.9859612 C265.821366,44.4919863 265.959338,44.9421648 266.062817,45.3685062 L266.081754,45.3685062 C266.18388,44.9544238 266.329968,44.5028832 266.511226,43.9859612 L267.236255,42 L267.907854,42 L268.162155,46.1054095 L267.647466,46.1054095 L267.545339,44.3026526" id="Fill-23" fill="#1A1919"></path>
            </g>
        </g>
    </g>
</svg>